<?xml version="1.0" encoding="UTF-8"?>
<svg version="1.1" xmlns="http://www.w3.org/2000/svg" width="300" height="300">
<path d="M0 0 C99 0 198 0 300 0 C300 99 300 198 300 300 C201 300 102 300 0 300 C0 201 0 102 0 0 Z " fill="#017ACD" transform="translate(0,0)"/>
<path d="M0 0 C5.55754131 4.01774546 9.95022411 9.30850929 14.375 14.5 C12.85962479 19.18785138 8.9952125 21.09816661 5.0625 23.625 C4.39798828 24.06714844 3.73347656 24.50929687 3.04882812 24.96484375 C-0.40569358 27.22685499 -3.69488344 29.14688443 -7.625 30.5 C-8.31335938 29.66855469 -8.31335938 29.66855469 -9.015625 28.8203125 C-9.62921875 28.09585938 -10.2428125 27.37140625 -10.875 26.625 C-11.47828125 25.90570313 -12.0815625 25.18640625 -12.703125 24.4453125 C-16.50631825 20.59573884 -19.71798742 20.16753666 -25.0625 20.0625 C-30.50763831 20.03389369 -30.50763831 20.03389369 -34.875 22.875 C-37.14421579 26.27882368 -37.81185805 27.77868395 -37.5 31.8125 C-37.45617187 32.57175781 -37.41234375 33.33101562 -37.3671875 34.11328125 C-35.89786108 38.83832568 -32.35074371 41.08540753 -28.19921875 43.45703125 C-26.90842029 44.08542435 -25.61255448 44.70348695 -24.3125 45.3125 C-23.61753418 45.65015381 -22.92256836 45.98780762 -22.20654297 46.33569336 C-20.01692122 47.39948418 -17.82156545 48.45063259 -15.625 49.5 C15.05887163 64.22378816 15.05887163 64.22378816 20.3125 77.8125 C23.65592002 89.4161342 24.31644155 101.97532696 18.84765625 113.01953125 C12.93673183 122.97559757 3.18579281 129.23680766 -8.04296875 132.12109375 C-24.6476737 135.59538267 -43.2133415 133.91670868 -57.625 124.5 C-63.66198865 119.8693553 -70.02557833 114.33304845 -73.625 107.5 C-73.625 106.18 -73.625 104.86 -73.625 103.5 C-63.23 97.56 -63.23 97.56 -52.625 91.5 C-47.625 96.5 -47.625 96.5 -45.9921875 98.37890625 C-40.79842507 104.23888428 -34.74279549 106.74783915 -27.046875 107.87890625 C-20.69604007 108.18845952 -15.13863792 106.65658367 -9.625 103.5 C-6.24798007 100.02365595 -6.25147287 96.42243939 -6.12890625 91.78125 C-6.84903772 88.46977932 -8.25324425 86.91013368 -10.625 84.5 C-12.98214308 83.09428558 -15.21455831 81.89986623 -17.6875 80.75 C-18.37924316 80.41419922 -19.07098633 80.07839844 -19.78369141 79.73242188 C-23.67978856 77.85148767 -27.60929111 76.0491047 -31.55078125 74.265625 C-45.80385373 67.77650108 -57.91615258 60.94880085 -64.28125 45.796875 C-67.63781076 36.39365784 -67.34216504 23.75887574 -63.125 14.75 C-57.15264601 4.88867132 -48.91599446 -1.79071946 -37.71191406 -5.05786133 C-25.72067968 -7.59835331 -10.52474602 -6.32215646 0 0 Z " fill="#F9FDFD" transform="translate(253.625,142.5)"/>
<path d="M0 0 C34.98 0 69.96 0 106 0 C106 7.92 106 15.84 106 24 C93.13 24 80.26 24 67 24 C67 60.63 67 97.26 67 135 C57.76 135 48.52 135 39 135 C39 98.37 39 61.74 39 24 C26.13 24 13.26 24 0 24 C0 16.08 0 8.16 0 0 Z " fill="#FDFEFE" transform="translate(66,139)"/>
<path d="M0 0 C13.2 0 26.4 0 40 0 C39.67 0.99 39.34 1.98 39 3 C26.79 3 14.58 3 2 3 C2.00523682 6.26116699 2.01047363 9.52233398 2.01586914 12.88232422 C2.03240961 23.63512282 2.04347307 34.38792197 2.05181217 45.1407299 C2.05703958 51.66267442 2.06413468 58.18460594 2.07543945 64.70654297 C2.08627334 70.99589288 2.09227791 77.28523026 2.09487724 83.57458878 C2.09673058 85.9788546 2.10034946 88.3831197 2.10573006 90.78738022 C2.1129471 94.14456434 2.11399066 97.50169614 2.11352539 100.85888672 C2.11712067 101.86157593 2.12071594 102.86426514 2.12442017 103.89733887 C2.1230455 104.80881683 2.12167084 105.7202948 2.12025452 106.65939331 C2.12117631 107.45397886 2.1220981 108.24856441 2.12304783 109.06722832 C2 111 2 111 1 113 C-8.9 113 -18.8 113 -29 113 C-29 112.34 -29 111.68 -29 111 C-29.99 111 -30.98 111 -32 111 C-32 110.34 -32 109.68 -32 109 C-31.34 109 -30.68 109 -30 109 C-30 74.02 -30 39.04 -30 3 C-38.25 3 -46.5 3 -55 3 C-58.3 2.67 -61.6 2.34 -65 2 C-65 1.67 -65 1.34 -65 1 C-52.79 1 -40.58 1 -28 1 C-28 37.3 -28 73.6 -28 111 C-18.76 111 -9.52 111 0 111 C0 74.37 0 37.74 0 0 Z " fill="#1075BD" transform="translate(133,163)"/>
<path d="M0 0 C0.33 0 0.66 0 1 0 C1 36.3 1 72.6 1 110 C13.375 109.505 13.375 109.505 26 109 C25.98952637 105.76912598 25.97905273 102.53825195 25.96826172 99.20947266 C25.93518054 88.55646892 25.91305379 77.90346295 25.89637566 67.25042152 C25.88592088 60.78899045 25.87173085 54.32761182 25.84912109 47.86621094 C25.82745303 41.63521176 25.81544415 35.40426315 25.81024551 29.17322922 C25.80653888 26.79128599 25.79930118 24.40934566 25.78853989 22.02742386 C25.77410522 18.70132631 25.77201869 15.37544003 25.77294922 12.04931641 C25.76575867 11.05597794 25.75856812 10.06263947 25.75115967 9.03919983 C25.753909 8.13613602 25.75665833 7.2330722 25.75949097 6.30264282 C25.75764738 5.51543161 25.75580379 4.72822041 25.75390434 3.91715431 C26 2 26 2 28 0 C28 36.63 28 73.26 28 111 C18.76 111 9.52 111 0 111 C0 74.37 0 37.74 0 0 Z " fill="#CDF3FE" transform="translate(105,163)"/>
<path d="M0 0 C34.98 0 69.96 0 106 0 C106 7.92 106 15.84 106 24 C93.13 24 80.26 24 67 24 C67 23.01 67 22.02 67 21 C67.50305664 21.16298584 68.00611328 21.32597168 68.52441406 21.49389648 C71.88724444 22.18138636 75.19362 22.12279879 78.609375 22.09765625 C79.33618469 22.0962413 80.06299438 22.09482635 80.81182861 22.09336853 C83.12459494 22.08778792 85.43726312 22.07523904 87.75 22.0625 C89.32161318 22.05748249 90.89322789 22.05292002 92.46484375 22.04882812 C96.30993343 22.03782485 100.1549501 22.02057361 104 22 C104.02696009 19.2291017 104.04681952 16.4584655 104.0625 13.6875 C104.07506836 12.50897461 104.07506836 12.50897461 104.08789062 11.30664062 C104.09272461 10.1706543 104.09272461 10.1706543 104.09765625 9.01171875 C104.10551147 7.96697388 104.10551147 7.96697388 104.11352539 6.90112305 C104.06895991 4.77502032 104.06895991 4.77502032 103 2 C69.67 1.67 36.34 1.34 2 1 C1.67 8.26 1.34 15.52 1 23 C13.54 23 26.08 23 39 23 C39 23.33 39 23.66 39 24 C26.13 24 13.26 24 0 24 C0 16.08 0 8.16 0 0 Z " fill="#DCF9FE" transform="translate(66,139)"/>
<path d="M0 0 C13.2 0 26.4 0 40 0 C39.67 0.99 39.34 1.98 39 3 C26.79 3 14.58 3 2 3 C1.67 38.31 1.34 73.62 1 110 C0.67 110 0.34 110 0 110 C0 73.7 0 37.4 0 0 Z " fill="#2475AC" transform="translate(133,163)"/>
<path d="M0 0 C0 1.65 0 3.3 0 5 C-0.53625 5.20625 -1.0725 5.4125 -1.625 5.625 C-4.26552704 6.99500973 -4.26552704 6.99500973 -6.6875 9.9375 C-9.68049055 13.0593028 -12.52280326 14.16096391 -16.65625 15.26171875 C-19.14140192 15.95886514 -19.14140192 15.95886514 -21.74902344 17.5234375 C-25.26664142 19.12110598 -27.52342736 19.37388888 -31.359375 19.36328125 C-32.55820313 19.36263672 -33.75703125 19.36199219 -34.9921875 19.36132812 C-36.85230469 19.3371582 -36.85230469 19.3371582 -38.75 19.3125 C-40.58691406 19.31733398 -40.58691406 19.31733398 -42.4609375 19.32226562 C-49.53803803 19.28059105 -56.13125787 18.73707187 -63 17 C-63 16.34 -63 15.68 -63 15 C-61.49373047 15.2165625 -61.49373047 15.2165625 -59.95703125 15.4375 C-41.6400895 17.97182044 -25.32270318 17.98476604 -9 8 C-7.02789749 6.43198085 -5.63131074 4.9470483 -4 3 C-1.10344828 0 -1.10344828 0 0 0 Z " fill="#2279B7" transform="translate(271,258)"/>
<path d="M0 0 C7.55869565 0.61956522 7.55869565 0.61956522 9.8125 2.5625 C10.204375 3.036875 10.59625 3.51125 11 4 C11.99 4 12.98 4 14 4 C14.33 3.34 14.66 2.68 15 2 C15.99 2.33 16.98 2.66 18 3 C18 3.99 18 4.98 18 6 C18.66 6 19.32 6 20 6 C20.763125 5.195625 21.52625 4.39125 22.3125 3.5625 C25.07654563 0.92701463 26.28837448 0.31813933 30 0 C26.25 6.875 26.25 6.875 24 8 C23.34444881 10.52733235 23.34444881 10.52733235 23 13 C22.42894531 12.63648438 21.85789062 12.27296875 21.26953125 11.8984375 C14.43082084 7.6582196 7.35463288 4.25079384 0 1 C0 0.67 0 0.34 0 0 Z " fill="#0579C6" transform="translate(238,192)"/>
<path d="M0 0 C-1.33926124 4.01778372 -3.49134469 4.78023848 -7 7 C-7.66 7.66 -8.32 8.32 -9 9 C-9 8.34 -9 7.68 -9 7 C-9.99 7 -10.98 7 -12 7 C-12 7.99 -12 8.98 -12 10 C-12.99 10 -13.98 10 -15 10 C-15 10.99 -15 11.98 -15 13 C-14.34 13.33 -13.68 13.66 -13 14 C-12.896875 14.5775 -12.79375 15.155 -12.6875 15.75 C-11.16378015 20.73671951 -5.99142395 23.92090153 -2 27 C-2.33 27.66 -2.66 28.32 -3 29 C-8.7290408 24.37212548 -14.2164053 19.3966398 -18 13 C-18 11.68 -18 10.36 -18 9 C-15.37785672 7.49480613 -12.75255792 5.99568681 -10.125 4.5 C-9.37863281 4.07074219 -8.63226563 3.64148438 -7.86328125 3.19921875 C-7.14785156 2.79316406 -6.43242187 2.38710937 -5.6953125 1.96875 C-5.03547363 1.59169922 -4.37563477 1.21464844 -3.69580078 0.82617188 C-2 0 -2 0 0 0 Z " fill="#D6F3FC" transform="translate(198,237)"/>
<path d="M0 0 C0.33 0.66 0.66 1.32 1 2 C0.22436454 3.47826993 -0.59775368 4.93218384 -1.4375 6.375 C-4.14557485 12.05443475 -4.46986566 17.01077023 -4.4375 23.1875 C-4.43484131 24.03038574 -4.43218262 24.87327148 -4.42944336 25.74169922 C-4.30365526 31.10690382 -3.4809826 35.84332563 -2 41 C-2.99 40.34 -3.98 39.68 -5 39 C-5.99 39.495 -5.99 39.495 -7 40 C-7.20638953 13.82345757 -7.20638953 13.82345757 -6 4 C-4.35 3.67 -2.7 3.34 -1 3 C-0.67 2.01 -0.34 1.02 0 0 Z " fill="#0F74B9" transform="translate(193,151)"/>
<path d="M0 0 C0.82177734 -0.00128906 1.64355469 -0.00257813 2.49023438 -0.00390625 C3.34037109 -0.00003906 4.19050781 0.00382813 5.06640625 0.0078125 C5.91267578 0.00394531 6.75894531 0.00007812 7.63085938 -0.00390625 C11.75836577 0.00255813 15.60430731 0.0915405 19.62890625 1.1328125 C19.62890625 1.4628125 19.62890625 1.7928125 19.62890625 2.1328125 C18.97929932 2.14739502 18.32969238 2.16197754 17.66040039 2.17700195 C14.67018685 2.25222912 11.68100028 2.34863862 8.69140625 2.4453125 C7.66982422 2.46787109 6.64824219 2.49042969 5.59570312 2.51367188 C-5.26657671 2.86790444 -5.26657671 2.86790444 -14.37109375 8.1328125 C-16.99609375 8.2578125 -16.99609375 8.2578125 -19.37109375 8.1328125 C-19.37109375 8.7928125 -19.37109375 9.4528125 -19.37109375 10.1328125 C-20.36109375 9.8028125 -21.35109375 9.4728125 -22.37109375 9.1328125 C-16.21390146 3.57147753 -8.34601456 0.01266604 0 0 Z " fill="#D0F0FA" transform="translate(222.37109375,136.8671875)"/>
<path d="M0 0 C0.66 0.33 1.32 0.66 2 1 C2 1.66 2 2.32 2 3 C3.3303125 3.433125 3.3303125 3.433125 4.6875 3.875 C8 5 8 5 10.3046875 6.0546875 C13.48522778 7.17018134 16.07215466 7.26585557 19.4375 7.25 C20.52933594 7.25515625 21.62117188 7.2603125 22.74609375 7.265625 C26.15156106 6.98762767 28.85584813 6.32825323 32 5 C32.96877057 2.96756452 32.96877057 2.96756452 33 1 C34.32 0.67 35.64 0.34 37 0 C36.42817522 3.31658372 35.54371255 4.81635635 33 7 C24.85187002 11.04907073 16.65301616 11.10224997 8.125 8.3125 C3.90182308 6.64592806 1.35233854 5.03258035 -1 1 C-0.67 0.67 -0.34 0.34 0 0 Z " fill="#217BBC" transform="translate(210,241)"/>
<path d="M0 0 C0.28875 0.639375 0.5775 1.27875 0.875 1.9375 C1.82823451 4.15206079 1.82823451 4.15206079 4 5 C4 5.99 4 6.98 4 8 C2.68 8 1.36 8 0 8 C0 7.01 0 6.02 0 5 C-3.48809191 5.77030122 -3.48809191 5.77030122 -7 7 C-7.33 7.99 -7.66 8.98 -8 10 C-10.3984375 11.60546875 -10.3984375 11.60546875 -13.375 13.1875 C-14.35210937 13.71730469 -15.32921875 14.24710938 -16.3359375 14.79296875 C-19 16 -19 16 -22 16 C-22 16.66 -22 17.32 -22 18 C-23.65 18 -25.3 18 -27 18 C-26.67 17.34 -26.34 16.68 -26 16 C-25.34 16 -24.68 16 -24 16 C-24 15.34 -24 14.68 -24 14 C-23.28457031 13.90074219 -22.56914062 13.80148438 -21.83203125 13.69921875 C-13.78112178 11.71147696 -6.45637267 5.0504004 0 0 Z " fill="#1476BC" transform="translate(268,158)"/>
<path d="M0 0 C9.79888306 4.33086437 19.58089428 8.69206826 29.1875 13.4375 C30.20166992 13.9315332 30.20166992 13.9315332 31.23632812 14.43554688 C35.8798726 16.75974521 35.8798726 16.75974521 37 19 C34.69 18.67 32.38 18.34 30 18 C30 17.34 30 16.68 30 16 C29.01 16 28.02 16 27 16 C26.67 15.34 26.34 14.68 26 14 C24.14255793 13.38932856 24.14255793 13.38932856 22 13 C19.8125 12.5625 19.8125 12.5625 18 12 C17.67 11.34 17.34 10.68 17 10 C15.11213182 9.12266249 13.18852885 8.32136312 11.25 7.5625 C7.26905855 5.99855872 3.52578351 4.44846077 0 2 C0 1.34 0 0.68 0 0 Z " fill="#1774B7" transform="translate(207,209)"/>
<path d="M0 0 C1.15628906 -0.00515625 2.31257812 -0.0103125 3.50390625 -0.015625 C6.4375 0.25 6.4375 0.25 8.4375 2.25 C3.4875 2.25 -1.4625 2.25 -6.5625 2.25 C-6.8925 3.57 -7.2225 4.89 -7.5625 6.25 C-8.2225 6.25 -8.8825 6.25 -9.5625 6.25 C-9.5625 10.87 -9.5625 15.49 -9.5625 20.25 C-13.06417906 16.74832094 -13.30766132 15.25310683 -13.69921875 10.5390625 C-13.48341514 6.92589353 -11.89937264 4.91143828 -9.5625 2.25 C-5.97967765 -0.13854824 -4.24856967 -0.01898802 0 0 Z " fill="#2479B5" transform="translate(228.5625,161.75)"/>
<path d="M0 0 C-1.62170379 1.00533667 -3.24747237 2.00411907 -4.875 3 C-5.77992188 3.556875 -6.68484375 4.11375 -7.6171875 4.6875 C-10 6 -10 6 -12 6 C-9.64543677 11.56717533 -9.64543677 11.56717533 -7 17 C-10 16 -10 16 -12.25 13.5 C-14.52756022 8.94487956 -13.99455488 5.86467059 -13 1 C-11.33333333 0.66666667 -9.66666667 0.33333333 -8 0 C-7.13375 -0.20625 -6.2675 -0.4125 -5.375 -0.625 C-3 -1 -3 -1 0 0 Z " fill="#1778BF" transform="translate(192,240)"/>
<path d="M0 0 C2 1.4375 2 1.4375 4 4 C4.35442445 7.02824418 4.23347235 9.96485939 4 13 C3.01 12.01 2.02 11.02 1 10 C-0.32 11.32 -1.64 12.64 -3 14 C-3.29341888 8.32723489 -3.00559652 5.00932754 0 0 Z " fill="#0E78C0" transform="translate(244,228)"/>
<path d="M0 0 C0.66 0 1.32 0 2 0 C5.96753524 3.96753524 5.06003235 10.91541097 5.09765625 16.25 C5.09107724 18.5000209 5.07925234 20.75003185 5.0625 23 C5.05798828 24.15628906 5.05347656 25.31257813 5.04882812 26.50390625 C5.03712529 29.33599225 5.02072996 32.16796811 5 35 C4.01 35 3.02 35 2 35 C2.15984375 34.35160156 2.3196875 33.70320313 2.484375 33.03515625 C4.35213939 22.04081587 3.47693508 10.55498151 0 0 Z " fill="#2175AE" transform="translate(272,216)"/>
<path d="M0 0 C0.47308594 0.39832031 0.94617188 0.79664063 1.43359375 1.20703125 C10.93069696 8.81582154 18.98118197 9.46160468 31 9 C28.27972753 11.72027247 26.73409508 11.29917861 22.9375 11.3125 C15.38999155 11.20396282 9.64315688 9.40295341 3 6 C3 5.34 3 4.68 3 4 C2.01 3.67 1.02 3.34 0 3 C0 2.01 0 1.02 0 0 Z " fill="#CFF4FD" transform="translate(207,241)"/>
<path d="M0 0 C0.680625 0.721875 1.36125 1.44375 2.0625 2.1875 C5.09214518 5.23455693 8.46217304 7.57207954 12 10 C8.52128379 11.15957207 7.65780355 10.77456651 4.3125 9.5625 C3.50425781 9.27503906 2.69601563 8.98757812 1.86328125 8.69140625 C1.24839844 8.46324219 0.63351563 8.23507813 0 8 C-0.79953138 4.71303767 -1.09658936 3.28976808 0 0 Z " fill="#1179BD" transform="translate(194,197)"/>
<path d="M0 0 C7.85124621 0.64354477 7.85124621 0.64354477 11 4 C12.8655851 5.05781043 12.8655851 5.05781043 14.875 5.9375 C18.31065744 7.5792625 21.11968255 9.47972223 24 12 C20.28153989 12 18.57347511 10.49488354 15.5390625 8.51171875 C10.58762774 5.56371067 5.26150817 3.33399219 0 1 C0 0.67 0 0.34 0 0 Z " fill="#297EBD" transform="translate(238,192)"/>
<path d="M0 0 C3.12613393 2.96160056 5.04783565 5.09567131 7 9 C1.555 12.96 1.555 12.96 -4 17 C-4.33 16.01 -4.66 15.02 -5 14 C-4.01 14 -3.02 14 -2 14 C-2 13.34 -2 12.68 -2 12 C-0.68 11.34 0.64 10.68 2 10 C1.54177532 6.53058454 1.10868317 3.32604951 0 0 Z " fill="#CFF2FC" transform="translate(261,150)"/>
<path d="M0 0 C0.63615234 0.56267578 0.63615234 0.56267578 1.28515625 1.13671875 C5.36517338 4.69664579 9.5513476 7.91317997 14 11 C12.1953125 11.61328125 12.1953125 11.61328125 10 12 C6.09814561 9.73692446 3.16518381 7.16518381 0 4 C0 2.68 0 1.36 0 0 Z " fill="#1A78B6" transform="translate(185,257)"/>
<path d="M0 0 C0.33 0 0.66 0 1 0 C1.04898438 1.0621875 1.09796875 2.124375 1.1484375 3.21875 C1.68360215 13.74501287 1.68360215 13.74501287 4 24 C3.01 23.34 2.02 22.68 1 22 C0.34 22.33 -0.32 22.66 -1 23 C-0.67 15.41 -0.34 7.82 0 0 Z " fill="#1E7ABE" transform="translate(187,168)"/>
<path d="M0 0 C1.4589426 0.47730838 2.91713496 0.95691042 4.375 1.4375 C5.18710938 1.70433594 5.99921875 1.97117188 6.8359375 2.24609375 C9 3 9 3 11 4 C11 4.66 11 5.32 11 6 C12.423125 6.1546875 12.423125 6.1546875 13.875 6.3125 C17 7 17 7 19 10 C12.01499761 8.07659354 5.95348061 5.15127876 0 1 C0 0.67 0 0.34 0 0 Z " fill="#2A7CB7" transform="translate(219,182)"/>
<path d="M0 0 C0.66 0.33 1.32 0.66 2 1 C2 1.66 2 2.32 2 3 C2.86625 3.268125 3.7325 3.53625 4.625 3.8125 C7.91791964 4.97111987 10.91127875 6.38209839 14 8 C11.64758796 8.81571335 10.37353681 9.11686468 7.96484375 8.36328125 C1.20570982 4.85999218 1.20570982 4.85999218 -1 1 C-0.67 0.67 -0.34 0.34 0 0 Z " fill="#1B77B3" transform="translate(210,241)"/>
<path d="M0 0 C3.95493883 1.31831294 6.40753335 2.70449155 9 6 C9.390625 9.234375 9.390625 9.234375 9.25 12.75 C9.21390625 13.92046875 9.1778125 15.0909375 9.140625 16.296875 C9.07101563 17.63492188 9.07101563 17.63492188 9 19 C8.34 19 7.68 19 7 19 C7.04640625 18.26394531 7.0928125 17.52789062 7.140625 16.76953125 C7.46274992 10.5911412 7.46274992 10.5911412 5.1875 5 C4.465625 4.34 3.74375 3.68 3 3 C2.4225 2.401875 1.845 1.80375 1.25 1.1875 C0.8375 0.795625 0.425 0.40375 0 0 Z " fill="#D1F3FD" transform="translate(240,224)"/>
<path d="M0 0 C5.31027254 1.46032495 9.46330032 3.98320986 14 7 C10.86650268 8.04449911 10.01031744 7.93423645 7 7 C7 6.34 7 5.68 7 5 C6.01 5 5.02 5 4 5 C3.67 4.34 3.34 3.68 3 3 C2.01 2.67 1.02 2.34 0 2 C0 1.34 0 0.68 0 0 Z " fill="#227AB8" transform="translate(230,220)"/>
<path d="M0 0 C5.82271337 -0.59720137 9.9209404 1.471757 15 4 C11.21180727 5.43410153 8.93478721 4.51009497 5.25 3.0625 C3.77273437 2.49208984 3.77273437 2.49208984 2.265625 1.91015625 C1.51796875 1.60980469 0.7703125 1.30945313 0 1 C0 0.67 0 0.34 0 0 Z " fill="#D1F0FA" transform="translate(201,269)"/>
<path d="M0 0 C0.33 0 0.66 0 1 0 C1 3.3 1 6.6 1 10 C2.32 10 3.64 10 5 10 C4.67 11.32 4.34 12.64 4 14 C2.66666667 14 1.33333333 14 0 14 C0 9.38 0 4.76 0 0 Z " fill="#0375C3" transform="translate(277,230)"/>
<path d="M0 0 C0.33 0 0.66 0 1 0 C1 6.27 1 12.54 1 19 C0.01 19 -0.98 19 -2 19 C-1.84660156 18.32582031 -1.69320313 17.65164062 -1.53515625 16.95703125 C-0.91516143 13.53122048 -0.6647426 10.16106553 -0.4375 6.6875 C-0.35371094 5.43324219 -0.26992188 4.17898437 -0.18359375 2.88671875 C-0.12300781 1.93410156 -0.06242187 0.98148438 0 0 Z " fill="#2A85C3" transform="translate(276,232)"/>
<path d="M0 0 C1.12588014 0.95729916 2.2506715 1.91587895 3.375 2.875 C4.00148437 3.40867188 4.62796875 3.94234375 5.2734375 4.4921875 C6.55836651 5.61432007 7.79371975 6.79371975 9 8 C6 9 6 9 3.375 7.9375 C1 6 1 6 0.1875 2.8125 C0.125625 1.884375 0.06375 0.95625 0 0 Z " fill="#DDF3FD" transform="translate(216,179)"/>
<path d="M0 0 C1.3271261 3.9813783 1.06915913 7.85045227 1 12 C0.01 11.34 -0.98 10.68 -2 10 C-2.40843923 7.28796348 -2.13336867 4.7562858 -2 2 C-1.34 2 -0.68 2 0 2 C0 1.34 0 0.68 0 0 Z " fill="#E4FCFE" transform="translate(215,166)"/>
<path d="M0 0 C-1.28913487 0.67154933 -2.58140204 1.33708859 -3.875 2 C-4.59429687 2.37125 -5.31359375 2.7425 -6.0546875 3.125 C-8 4 -8 4 -10 4 C-9.25 2.0625 -9.25 2.0625 -8 0 C-4.99756227 -1.30105635 -3.07011437 -0.84139118 0 0 Z " fill="#DAF6FD" transform="translate(261,268)"/>
<path d="M0 0 C2.31 0 4.62 0 7 0 C4.3534665 2.6465335 1.43778736 3.59941997 -2 5 C-1.34 3.35 -0.68 1.7 0 0 Z " fill="#2C7BB2" transform="translate(203,140)"/>
<path d="M0 0 C4.875 4.75 4.875 4.75 6 7 C5.01 7 4.02 7 3 7 C2.67 5.68 2.34 4.36 2 3 C0.35 3 -1.3 3 -3 3 C-2.01 2.01 -1.02 1.02 0 0 Z " fill="#CBF1FD" transform="translate(201,234)"/>
<path d="M0 0 C-5.75 4 -5.75 4 -8 4 C-7 1 -7 1 -5.125 -0.25 C-3 -1 -3 -1 0 0 Z " fill="#2075B1" transform="translate(200,235)"/>
<path d="M0 0 C2.91517292 1.07401108 4.77810176 1.77810176 7 4 C5.35 4.33 3.7 4.66 2 5 C1.34 3.35 0.68 1.7 0 0 Z " fill="#D8F3FC" transform="translate(249,198)"/>
<path d="M0 0 C0 0.99 0 1.98 0 3 C-0.66 3 -1.32 3 -2 3 C-2.33 3.99 -2.66 4.98 -3 6 C-4.32 5.67 -5.64 5.34 -7 5 C-4.69 3.35 -2.38 1.7 0 0 Z " fill="#2278B9" transform="translate(263,162)"/>
</svg>
